<?xml version="1.0" encoding="utf-8"?>
<svg contentScriptType="text/ecmascript" xmlns:xlink="http://www.w3.org/1999/xlink" zoomAndPan="magnify" contentStyleType="text/css" viewBox="718.2018955727675 55.0 1622.1314377605654 966.2420013000001" xmlns:cacoo="http://cacoo.com/" preserveAspectRatio="xMidYMin meet" xmlns="http://www.w3.org/2000/svg" version="1.1"><defs><linearGradient x1="0%" xmlns:xlink="http://www.w3.org/1999/xlink" y1="0%" x2="0%" y2="100%" xlink:type="simple" xlink:actuate="onLoad" id="id2" xlink:show="other"><stop stop-opacity="1.0" stop-color="#cccccc" offset="0%"/><stop stop-opacity="1.0" stop-color="#b4b4b4" offset="100%"/></linearGradient><linearGradient xlink:actuate="onLoad" xlink:type="simple" id="id3" xlink:show="other" xmlns:xlink="http://www.w3.org/1999/xlink"><stop stop-opacity="1.0" stop-color="#cccccc" offset="0%"/><stop stop-opacity="1.0" stop-color="#b4b4b4" offset="100%"/></linearGradient><linearGradient xlink:actuate="onLoad" xlink:type="simple" id="id4" xlink:show="other" xmlns:xlink="http://www.w3.org/1999/xlink"><stop stop-opacity="1.0" stop-color="#cccccc" offset="0%"/><stop stop-opacity="1.0" stop-color="#b4b4b4" offset="100%"/></linearGradient><linearGradient xlink:actuate="onLoad" xlink:type="simple" id="id5" xlink:show="other" xmlns:xlink="http://www.w3.org/1999/xlink"><stop stop-opacity="1.0" stop-color="#cccccc" offset="0%"/><stop stop-opacity="1.0" stop-color="#b4b4b4" offset="100%"/></linearGradient><linearGradient xlink:actuate="onLoad" xlink:type="simple" id="id6" xlink:show="other" xmlns:xlink="http://www.w3.org/1999/xlink"><stop stop-opacity="1.0" stop-color="#cccccc" offset="0%"/><stop stop-opacity="1.0" stop-color="#b4b4b4" offset="100%"/></linearGradient><linearGradient xlink:actuate="onLoad" xlink:type="simple" id="id7" xlink:show="other" xmlns:xlink="http://www.w3.org/1999/xlink"><stop stop-opacity="1.0" stop-color="#cccccc" offset="0%"/><stop stop-opacity="1.0" stop-color="#b4b4b4" offset="100%"/></linearGradient><linearGradient xlink:actuate="onLoad" xlink:type="simple" id="id8" xlink:show="other" xmlns:xlink="http://www.w3.org/1999/xlink"><stop stop-opacity="1.0" stop-color="#cccccc" offset="0%"/><stop stop-opacity="1.0" stop-color="#b4b4b4" offset="100%"/></linearGradient><linearGradient xlink:actuate="onLoad" xlink:type="simple" id="id9" xlink:show="other" xmlns:xlink="http://www.w3.org/1999/xlink"><stop stop-opacity="1.0" stop-color="#cccccc" offset="0%"/><stop stop-opacity="1.0" stop-color="#b4b4b4" offset="100%"/></linearGradient><linearGradient xlink:actuate="onLoad" xlink:type="simple" id="id10" xlink:show="other" xmlns:xlink="http://www.w3.org/1999/xlink"><stop stop-opacity="1.0" stop-color="#cccccc" offset="0%"/><stop stop-opacity="1.0" stop-color="#b4b4b4" offset="100%"/></linearGradient><linearGradient x1="0%" xmlns:xlink="http://www.w3.org/1999/xlink" y1="0%" x2="0%" y2="100%" xlink:type="simple" xlink:actuate="onLoad" id="id11" xlink:show="other"><stop stop-opacity="1.0" stop-color="#cccccc" offset="0%"/><stop stop-opacity="1.0" stop-color="#b4b4b4" offset="100%"/></linearGradient><linearGradient xlink:actuate="onLoad" xlink:type="simple" id="id12" xlink:show="other" xmlns:xlink="http://www.w3.org/1999/xlink"><stop stop-opacity="1.0" stop-color="#cccccc" offset="0%"/><stop stop-opacity="1.0" stop-color="#b4b4b4" offset="100%"/></linearGradient><linearGradient xlink:actuate="onLoad" xlink:type="simple" id="id13" xlink:show="other" xmlns:xlink="http://www.w3.org/1999/xlink"><stop stop-opacity="1.0" stop-color="#cccccc" offset="0%"/><stop stop-opacity="1.0" stop-color="#b4b4b4" offset="100%"/></linearGradient><linearGradient xlink:actuate="onLoad" xlink:type="simple" id="id14" xlink:show="other" xmlns:xlink="http://www.w3.org/1999/xlink"><stop stop-opacity="1.0" stop-color="#cccccc" offset="0%"/><stop stop-opacity="1.0" stop-color="#b4b4b4" offset="100%"/></linearGradient><linearGradient xlink:actuate="onLoad" xlink:type="simple" id="id15" xlink:show="other" xmlns:xlink="http://www.w3.org/1999/xlink"><stop stop-opacity="1.0" stop-color="#cccccc" offset="0%"/><stop stop-opacity="1.0" stop-color="#b4b4b4" offset="100%"/></linearGradient><linearGradient xlink:actuate="onLoad" xlink:type="simple" id="id16" xlink:show="other" xmlns:xlink="http://www.w3.org/1999/xlink"><stop stop-opacity="1.0" stop-color="#cccccc" offset="0%"/><stop stop-opacity="1.0" stop-color="#b4b4b4" offset="100%"/></linearGradient><linearGradient xlink:actuate="onLoad" xlink:type="simple" id="id17" xlink:show="other" xmlns:xlink="http://www.w3.org/1999/xlink"><stop stop-opacity="1.0" stop-color="#cccccc" offset="0%"/><stop stop-opacity="1.0" stop-color="#b4b4b4" offset="100%"/></linearGradient><linearGradient xlink:actuate="onLoad" xlink:type="simple" id="id18" xlink:show="other" xmlns:xlink="http://www.w3.org/1999/xlink"><stop stop-opacity="1.0" stop-color="#cccccc" offset="0%"/><stop stop-opacity="1.0" stop-color="#b4b4b4" offset="100%"/></linearGradient><linearGradient xlink:actuate="onLoad" xlink:type="simple" id="id19" xlink:show="other" xmlns:xlink="http://www.w3.org/1999/xlink"><stop stop-opacity="1.0" stop-color="#cccccc" offset="0%"/><stop stop-opacity="1.0" stop-color="#b4b4b4" offset="100%"/></linearGradient><linearGradient x1="0%" xmlns:xlink="http://www.w3.org/1999/xlink" y1="0%" x2="0%" y2="100%" xlink:type="simple" xlink:actuate="onLoad" id="id20" xlink:show="other"><stop stop-opacity="1.0" stop-color="#efbc7a" offset="0%"/><stop stop-opacity="1.0" stop-color="#efac62" offset="100%"/></linearGradient><linearGradient x1="0%" xmlns:xlink="http://www.w3.org/1999/xlink" y1="0%" x2="0%" y2="100%" xlink:type="simple" xlink:actuate="onLoad" id="id21" xlink:show="other"><stop stop-opacity="1.0" stop-color="#ffffff" offset="0%"/><stop stop-opacity="1.0" stop-color="#fcf1e4" offset="100%"/></linearGradient><linearGradient x1="0%" xmlns:xlink="http://www.w3.org/1999/xlink" y1="0%" x2="0%" y2="100%" xlink:type="simple" xlink:actuate="onLoad" id="id22" xlink:show="other"><stop stop-opacity="1.0" stop-color="#efbc7a" offset="0%"/><stop stop-opacity="1.0" stop-color="#efac62" offset="100%"/></linearGradient><linearGradient x1="0%" xmlns:xlink="http://www.w3.org/1999/xlink" y1="0%" x2="0%" y2="100%" xlink:type="simple" xlink:actuate="onLoad" id="id23" xlink:show="other"><stop stop-opacity="1.0" stop-color="#ffffff" offset="0%"/><stop stop-opacity="1.0" stop-color="#fcf1e4" offset="100%"/></linearGradient><linearGradient x1="0%" xmlns:xlink="http://www.w3.org/1999/xlink" y1="0%" x2="0%" y2="100%" xlink:type="simple" xlink:actuate="onLoad" id="id24" xlink:show="other"><stop stop-opacity="1.0" stop-color="#efbc7a" offset="0%"/><stop stop-opacity="1.0" stop-color="#efac62" offset="100%"/></linearGradient><linearGradient x1="0%" xmlns:xlink="http://www.w3.org/1999/xlink" y1="0%" x2="0%" y2="100%" xlink:type="simple" xlink:actuate="onLoad" id="id25" xlink:show="other"><stop stop-opacity="1.0" stop-color="#ffffff" offset="0%"/><stop stop-opacity="1.0" stop-color="#fcf1e4" offset="100%"/></linearGradient><linearGradient x1="0%" xmlns:xlink="http://www.w3.org/1999/xlink" y1="0%" x2="0%" y2="100%" xlink:type="simple" xlink:actuate="onLoad" id="id26" xlink:show="other"><stop stop-opacity="1.0" stop-color="#efbc7a" offset="0%"/><stop stop-opacity="1.0" stop-color="#efac62" offset="100%"/></linearGradient><linearGradient x1="0%" xmlns:xlink="http://www.w3.org/1999/xlink" y1="0%" x2="0%" y2="100%" xlink:type="simple" xlink:actuate="onLoad" id="id27" xlink:show="other"><stop stop-opacity="1.0" stop-color="#ffffff" offset="0%"/><stop stop-opacity="1.0" stop-color="#fcf1e4" offset="100%"/></linearGradient><linearGradient xlink:actuate="onLoad" xlink:type="simple" id="id28" xlink:show="other" xmlns:xlink="http://www.w3.org/1999/xlink"><stop stop-opacity="1.0" stop-color="#efbc7a" offset="0%"/><stop stop-opacity="1.0" stop-color="#efac62" offset="100%"/></linearGradient></defs><g><g transform="translate(741.6018980495018 174.43991853360484)"><clipPath id="id0"><path d="M0 0 L1583.7314352838312 0 L1583.7314352838312 106.18058384249821 L0 106.18058384249821z"/></clipPath><text font-size="60" clip-path="url(#id0)" text-decoration="none" fill="#000000" font-family="Arial,Arial" font-style="normal" font-weight="normal"><tspan x="539.0" xml:space="preserve" y="56.0" textLength="506.0"> Restuarant Layout</tspan></text></g><g transform="translate(1657.3482935291609 70.0)"><clipPath id="id1"><path d="M0 0 L283.9855519962007 0 L283.9855519962007 76.41547861507124 L0 76.41547861507124z"/></clipPath><text font-size="12" clip-path="url(#id1)" text-decoration="none" fill="#000000" font-family="Arial,Arial" font-style="normal" font-weight="normal"/></g><g transform="translate(1941.3338455253615 757.7866058513234)"><path fill="url(#id2)" d="M116.08572070799374 47.56863410061099 Q130.50225861450295 62.11574885132383 130.50225861450295 82.68966318533606 Q130.50225861450295 103.26357751934827 116.08572070799374 117.8135565132383 Q101.66919794738064 132.36067183706723 81.27927196868004 132.36067183706723 Q60.88934031026844 132.36067183706723 46.47139837919015 117.8135565132383 Q32.0534492538112 103.26500457841142 32.0534492538112 82.69109215478616 Q32.0534492538112 62.11717782077393 46.47139837919015 47.56863047087576 Q60.887924168982494 33.020075861507124 81.27785014768304 33.020075861507124 Q101.66777423314662 33.020075861507124 116.08572070799374 47.56863047087576 L116.08572070799374 47.56863410061099z" stroke-width="1.0" stroke-linejoin="round" stroke="#757575"/><path fill="#5b5b5b" fill-opacity="1.0" d="M35.55120596116366 49.76940026680245 Q29.25227957100803 56.00082655600815 23.06909243918696 49.65095627494908 L10.706253984990871 36.94497447861508 Q4.525400078464998 30.590586132382892 10.821741253478956 24.34788282892057 L23.549972747330184 11.739329621588595 Q29.849891193680776 5.49654149694501 36.03019113905656 11.853952839511201 L48.393030729194855 24.55802730549898 Q54.57657189633741 30.91172218126273 48.27754137814607 37.157027431771894 L35.54931083091334 49.769404087576376 L35.55120596116366 49.76940026680245z" stroke-width="1.0" stroke-linejoin="round" stroke="#3d3d3d"/><path fill="url(#id3)" d="M52.35746960303291 22.261738581588602 Q54.11516220561015 24.035355212953156 52.35746960303291 25.805505447169047 Q50.59883227518604 27.580074406435852 48.84361981309624 25.805505447169047 L28.638995353691712 5.421678245947049 Q26.880357079226332 3.6471096687576385 28.638995353691712 1.8760000955193483 Q30.395920059336348 0.09969854900203665 32.15284306106767 1.8760000955193483 L52.35746581655888 22.263648968553973 L52.35746960303291 22.261738581588602z" stroke-width="1.0" stroke-linejoin="round" stroke="#757575"/><path fill="url(#id4)" d="M24.905533515902686 49.96044182892055 Q26.660742191518448 51.735009832993875 24.905533515902686 53.506118126272895 Q23.148607674315834 55.28242076171078 21.39168561920302 53.506118126272895 L1.1870596452088606 33.12037881873726 Q-0.5706342826342822 31.346764670875753 1.1870596452088606 29.576611953156814 Q2.9456975410268393 27.802042993890012 4.700906973937419 29.576611953156814 L24.90363838565236 49.96235030549896 L24.905533515902686 49.96044182892055z" stroke-width="1.0" stroke-linejoin="round" stroke="#757575"/><path fill="#7f7f7f" fill-opacity="1.0" d="M18.678676373296796 19.505051298574337 Q21.823045814190305 16.388835722199595 26.115785617442477 13.084478551120164 Q30.40980335567863 9.779140014256619 30.278541447071976 9.909177571486762 Q33.21644392547916 6.9895742456211805 30.55306081400163 4.246790606109981 Q29.87528764294839 3.562880287169043 29.30920220302126 2.9668313393075367 Q24.338792410133074 -2.139843161710794 10.730869284666792 11.341967795519345 Q-2.943137278749002 24.8910377466395 2.023869988578856 29.996896512423632 Q2.747078765390761 30.726654781262724 3.2696199433355226 31.27685577922606 Q5.942228230807814 34.01521591771895 8.88306711982266 31.103010565376778 Q8.746503200960218 31.238613652953156 12.108907282491343 26.960575229327898 Q15.46416818077126 22.691624516496944 18.6105198408177 19.575733705906316 L18.678676373296796 19.505051298574337z" stroke-width="1.0" stroke-linejoin="round" stroke="#3d3d3d"/><path fill="#5b5b5b" fill-opacity="1.0" d="M127.35995280195397 115.97195436782076 Q133.65887540563557 109.73707085132381 139.8420701104047 116.09039893279021 L152.20301267705565 128.79446843177186 Q158.3872903133964 135.148860598778 152.08753089895492 141.39156199185334 L139.35929845848517 154.0001140529531 Q133.05676734505622 160.24208758859467 126.87718304327146 153.88549465580445 L114.51434780757829 141.1814194256619 Q108.330005233208 134.83042392668023 114.6298369693034 128.58432395519347 L127.35996794785007 115.97194710835028 L127.35995280195397 115.97195436782076z" stroke-width="1.0" stroke-linejoin="round" stroke="#3d3d3d"/><path fill="url(#id5)" d="M110.55368499496329 143.4776921405295 Q108.79504672049791 141.7031304407332 110.55368499496329 139.9320085837067 Q112.31232326942867 138.15744688391038 114.06753099842594 139.9320085837067 L134.27215167135648 160.31774273319755 Q136.02735845373525 162.09230500610997 134.27215167135648 163.86342667209775 Q132.51352002322065 165.63798894501016 130.75829809494576 163.86342667209775 L110.55368499496329 143.4776921405295 L110.55368499496329 143.4776921405295z" stroke-width="1.0" stroke-linejoin="round" stroke="#757575"/><path fill="url(#id6)" d="M138.0056144936287 115.77709260488795 Q136.246983413464 114.00252364562115 138.0056144936287 112.23141630753561 Q139.76424538446975 110.45684734826881 141.519467691392 112.23141630753561 L161.72408836432254 132.61906122606922 Q163.48177907366275 134.39267403665986 161.72408836432254 136.16283477800405 Q159.96278346552393 137.9366233441955 158.20834155089852 136.16283477800405 L138.0056144936287 115.77709260488795 L138.0056144936287 115.77709260488795z" stroke-width="1.0" stroke-linejoin="round" stroke="#757575"/><path fill="#7f7f7f" fill-opacity="1.0" d="M144.2324763314624 146.23438912830954 Q141.08620040089647 149.35249789816697 136.79513100066114 152.65568113645617 Q132.4869738111148 155.9720116578411 132.63072313241386 155.830268586558 Q129.69546323422983 158.75065039511196 132.35810230356114 161.4926498207739 Q133.03586979490333 162.176556892057 133.60195447753568 162.7726052668024 Q138.57112401085644 167.87801318126267 152.18028247347388 154.39746307942968 Q165.8533253792499 140.84934335478613 160.8853995133232 135.74253569979632 Q159.82897515313434 134.67654244765782 159.64343887244866 134.4625800627291 Q156.96989381130217 131.72326358452136 154.02809126464757 134.63643177189408 Q154.17121998285364 134.49398930794294 150.8029639057144 138.778863287169 Q147.44805514951895 143.04675755600812 144.30063873297624 146.16370022566187 L144.2324763314624 146.23438912830954z" stroke-width="1.0" stroke-linejoin="round" stroke="#3d3d3d"/><path fill="#5b5b5b" fill-opacity="1.0" d="M114.89676653837046 35.546569500610985 Q108.72052701841712 29.189810364154788 115.01603990223775 22.951390148268835 L127.60796117098631 10.478472696130346 Q133.90266564260227 4.237397997556007 140.09007658620004 10.595006109979632 L152.58543898079586 23.438538824439917 Q158.77384766029962 29.797238914052947 152.4699572026951 36.03371626639511 L139.87992727772283 48.51045353727087 Q133.58783736642226 54.748875663543785 127.39591862549582 48.39010106883911 L114.89676653837046 35.546569500610985 L114.89676653837046 35.546569500610985z" stroke-width="1.0" stroke-linejoin="round" stroke="#3d3d3d"/><path fill="url(#id7)" d="M142.15748061328136 52.505073446028504 Q140.39884953311662 54.27964336048878 138.64362741551807 52.505073446028504 Q136.8884196865208 50.730505441955174 138.64362741551807 48.95939332790222 L158.84824808844857 28.57365526211812 Q160.60593879778878 26.79657576782077 162.36020842784598 28.57365526211812 Q164.12476212135942 30.347269505498975 162.36020842784598 32.117422223217915 L142.15748061328136 52.505073446028504 L142.15748061328136 52.505073446028504z" stroke-width="1.0" stroke-linejoin="round" stroke="#757575"/><path fill="url(#id8)" d="M114.70555433311881 24.80446560020365 Q112.94691605865343 26.579033604276972 111.19170825392668 24.80446560020365 Q109.43401610572633 23.030848968839095 111.19170825392668 21.260695869042756 L131.3963284346156 0.873046881384928 Q133.15495913613293 -0.901521829531568 134.9101820110263 0.873046881384928 Q136.66881176592514 2.6476155158859447 134.9101820110263 4.418725146435843 L114.70555433311881 24.80446560020365 L114.70555433311881 24.80446560020365z" stroke-width="1.0" stroke-linejoin="round" stroke="#757575"/><path fill="#7f7f7f" fill-opacity="1.0" d="M144.88943052169878 18.521201629327905 Q147.97860831718035 21.696173067209777 151.25307721915436 26.026395621181265 Q154.53362719841513 30.364658993890018 154.39916571925596 30.226138745417515 Q157.29496260648722 33.19664528716904 160.00882130997655 30.503144855397153 Q161.49445575374142 29.069231323828916 161.2772882156559 29.251845213849286 Q166.33995544820257 24.231852610997954 152.97922281337884 10.503305625254583 Q139.5540417400903 -3.292246272912423 134.49176470369207 1.7193467405295326 Q133.6028509252615 2.6553051099796336 133.22329931260234 2.9744709767820767 Q130.5077944395299 5.673001839511202 133.397482608214 8.640678907128311 Q133.26309326138505 8.502880211812627 137.50178796356053 11.894785068431773 Q141.73146953228675 15.279481270875767 144.81937601911386 18.454338085539717 L144.88943052169878 18.525022403258653 L144.88943052169878 18.521201629327905z" stroke-width="1.0" stroke-linejoin="round" stroke="#3d3d3d"/><path fill="#5b5b5b" fill-opacity="1.0" d="M48.19234817375529 129.29881059063135 Q54.3668869988996 135.6538293645621 48.074967478930205 141.89208719755598 L35.483049996655666 154.36500178411404 Q29.188351204750763 160.60607170672097 23.000936474678976 154.24847391038693 L10.50557256549353 141.40494234215885 Q4.317159720868328 135.04625180448065 10.621059644657919 128.8097572586558 L23.21108578315616 116.33302380855396 Q29.50320219977492 110.09456920570264 35.69509064890916 116.45337742321792 L48.19424330400563 129.2988239633401 L48.19234817375529 129.29881059063135z" stroke-width="1.0" stroke-linejoin="round" stroke="#3d3d3d"/><path fill="url(#id9)" d="M20.931628987104435 112.33839778655802 Q22.688551042217256 110.56555600814661 24.44547499056709 112.33839778655802 Q26.200685559419874 114.11296674582482 24.44547499056709 115.88407408391036 L4.242743957499545 136.27172492464356 Q2.484106251005267 138.0428332179226 0.7288962501235836 136.27172492464356 Q-1.0263137507580997 134.49716456211812 0.7288962501235836 132.72604098574337 L20.933520330880725 112.33839052708755 L20.931628987104435 112.33839778655802z" stroke-width="1.0" stroke-linejoin="round" stroke="#757575"/><path fill="url(#id10)" d="M48.38356511209943 140.0390093576374 Q50.14220243994631 138.2644476578411 51.897411115562086 140.0390093576374 Q53.65262168441487 141.81357086639505 51.897411115562086 143.58469291446025 L31.69278703480493 163.97042744602848 Q29.935864033073607 165.74672435030547 28.178939138105267 163.97042744602848 Q26.421245210262125 162.19681272505088 28.178939138105267 160.42665389409365 L48.38167187508613 140.0390093576374 L48.38356511209943 140.0390093576374z" stroke-width="1.0" stroke-linejoin="round" stroke="#757575"/><path fill="#7f7f7f" fill-opacity="1.0" d="M18.199686651635066 146.32227457026474 Q15.110382009273623 143.14832901018326 11.836043740653528 138.81779066924642 Q8.554683455951077 134.47798313075356 8.689957701760052 134.61733554378816 Q5.797586437580696 131.64682900203664 3.0802968099758288 134.34033592912422 Q1.4604362164125484 135.9038063645621 1.8118278217357626 135.59354633971483 Q-3.24994277376141 140.60995906843175 10.109885461741058 154.34018012627288 Q23.533792954490764 168.13701007331971 28.597344328722638 163.12415276578406 Q29.582770407675426 162.12979635030547 29.865813127639015 161.86903426069244 Q32.579573382803666 159.17223268024438 29.69163721565169 156.20281887983703 Q29.827094537479844 156.34171929531567 25.58804598930657 152.94942414663947 Q21.357870096396173 149.5642413686354 18.269738314364474 146.38915912830953 L18.199686651635066 146.32227457026474z" stroke-width="1.0" stroke-linejoin="round" stroke="#3d3d3d"/></g><g transform="translate(1941.3338455253615 423.1464928716904)"><path fill="url(#id11)" d="M116.08572070799374 47.568634100611064 Q130.50225861450295 62.11574885132392 130.50225861450295 82.68966318533617 Q130.50225861450295 103.26357751934842 116.08572070799374 117.81355651323847 Q101.66919794738064 132.36067183706743 81.27927196868004 132.36067183706743 Q60.88934031026844 132.36067183706743 46.47139837919015 117.81355651323847 Q32.0534492538112 103.26500457841156 32.0534492538112 82.69109215478628 Q32.0534492538112 62.11717782077402 46.47139837919015 47.56863047087583 Q60.887924168982494 33.020075861507166 81.27785014768304 33.020075861507166 Q101.66777423314662 33.020075861507166 116.08572070799374 47.56863047087583 L116.08572070799374 47.568634100611064z" stroke-width="1.0" stroke-linejoin="round" stroke="#757575"/><path fill="#5b5b5b" fill-opacity="1.0" d="M35.55120596116366 49.76940026680251 Q29.25227957100803 56.00082655600823 23.06909243918696 49.650956274949166 L10.706253984990871 36.94497447861513 Q4.525400078464998 30.59058613238294 10.821741253478956 24.347882828920604 L23.549972747330184 11.73932962158861 Q29.849891193680776 5.4965414969450155 36.03019113905656 11.85395283951122 L48.393030729194855 24.558027305499017 Q54.57657189633741 30.911722181262775 48.27754137814607 37.15702743177195 L35.54931083091334 49.76940408757646 L35.55120596116366 49.76940026680251z" stroke-width="1.0" stroke-linejoin="round" stroke="#3d3d3d"/><path fill="url(#id12)" d="M52.35746960303291 22.261738581588617 Q54.11516220561015 24.035355212953185 52.35746960303291 25.805505447169068 Q50.59883227518604 27.580074406435873 48.84361981309624 25.805505447169068 L28.638995353691712 5.421678245947053 Q26.880357079226332 3.647109668757643 28.638995353691712 1.876000095519351 Q30.395920059336348 0.09969854900203674 32.15284306106767 1.876000095519351 L52.35746581655888 22.263648968553998 L52.35746960303291 22.261738581588617z" stroke-width="1.0" stroke-linejoin="round" stroke="#757575"/><path fill="url(#id13)" d="M24.905533515902686 49.96044182892063 Q26.660742191518448 51.73500983299395 24.905533515902686 53.50611812627298 Q23.148607674315834 55.28242076171085 21.39168561920302 53.50611812627298 L1.1870596452088606 33.12037881873731 Q-0.5706342826342822 31.346764670875803 1.1870596452088606 29.57661195315686 Q2.9456975410268393 27.802042993890055 4.700906973937419 29.57661195315686 L24.90363838565236 49.962350305499044 L24.905533515902686 49.96044182892063z" stroke-width="1.0" stroke-linejoin="round" stroke="#757575"/><path fill="#7f7f7f" fill-opacity="1.0" d="M18.678676373296796 19.505051298574347 Q21.823045814190305 16.38883572219961 26.115785617442477 13.084478551120165 Q30.40980335567863 9.779140014256624 30.278541447071976 9.909177571486767 Q33.21644392547916 6.989574245621183 30.55306081400163 4.2467906061099825 Q29.87528764294839 3.5628802871690453 29.30920220302126 2.966831339307537 Q24.338792410133074 -2.1398431617107962 10.730869284666792 11.341967795519354 Q-2.943137278749002 24.891037746639523 2.023869988578856 29.996896512423643 Q2.747078765390761 30.72665478126274 3.2696199433355226 31.276855779226086 Q5.942228230807814 34.015215917718955 8.88306711982266 31.103010565376803 Q8.746503200960218 31.238613652953166 12.108907282491343 26.96057522932791 Q15.46416818077126 22.691624516496958 18.6105198408177 19.575733705906327 L18.678676373296796 19.505051298574347z" stroke-width="1.0" stroke-linejoin="round" stroke="#3d3d3d"/><path fill="#5b5b5b" fill-opacity="1.0" d="M127.35995280195397 115.9719543678209 Q133.65887540563557 109.73707085132395 139.8420701104047 116.09039893279035 L152.20301267705565 128.79446843177203 Q158.3872903133964 135.14886059877816 152.08753089895492 141.3915619918535 L139.35929845848517 154.00011405295334 Q133.05676734505622 160.2420875885949 126.87718304327146 153.88549465580465 L114.51434780757829 141.18141942566206 Q108.330005233208 134.8304239266804 114.6298369693034 128.5843239551936 L127.35996794785007 115.97194710835043 L127.35995280195397 115.9719543678209z" stroke-width="1.0" stroke-linejoin="round" stroke="#3d3d3d"/><path fill="url(#id14)" d="M110.55368499496329 143.4776921405297 Q108.79504672049791 141.70313044073336 110.55368499496329 139.93200858370687 Q112.31232326942867 138.15744688391055 114.06753099842594 139.93200858370687 L134.27215167135648 160.31774273319772 Q136.02735845373525 162.09230500611014 134.27215167135648 163.86342667209792 Q132.51352002322065 165.63798894501036 130.75829809494576 163.86342667209792 L110.55368499496329 143.4776921405297 L110.55368499496329 143.4776921405297z" stroke-width="1.0" stroke-linejoin="round" stroke="#757575"/><path fill="url(#id15)" d="M138.0056144936287 115.7770926048881 Q136.246983413464 114.0025236456213 138.0056144936287 112.23141630753575 Q139.76424538446975 110.45684734826895 141.519467691392 112.23141630753575 L161.72408836432254 132.6190612260694 Q163.48177907366275 134.39267403666003 161.72408836432254 136.1628347780042 Q159.96278346552393 137.93662334419568 158.20834155089852 136.1628347780042 L138.0056144936287 115.7770926048881 L138.0056144936287 115.7770926048881z" stroke-width="1.0" stroke-linejoin="round" stroke="#757575"/><path fill="#7f7f7f" fill-opacity="1.0" d="M144.2324763314624 146.23438912830972 Q141.08620040089647 149.35249789816714 136.79513100066114 152.65568113645637 Q132.4869738111148 155.97201165784128 132.63072313241386 155.8302685865582 Q129.69546323422983 158.7506503951122 132.35810230356114 161.4926498207741 Q133.03586979490333 162.1765568920572 133.60195447753568 162.77260526680263 Q138.57112401085644 167.8780131812629 152.18028247347388 154.39746307942988 Q165.8533253792499 140.84934335478627 160.8853995133232 135.74253569979646 Q159.82897515313434 134.67654244765797 159.64343887244866 134.46258006272924 Q156.96989381130217 131.7232635845215 154.02809126464757 134.63643177189422 Q154.17121998285364 134.4939893079431 150.8029639057144 138.77886328716917 Q147.44805514951895 143.0467575560083 144.30063873297624 146.16370022566204 L144.2324763314624 146.23438912830972z" stroke-width="1.0" stroke-linejoin="round" stroke="#3d3d3d"/><path fill="#5b5b5b" fill-opacity="1.0" d="M114.89676653837046 35.546569500611035 Q108.72052701841712 29.189810364154827 115.01603990223775 22.95139014826887 L127.60796117098631 10.478472696130359 Q133.90266564260227 4.237397997556012 140.09007658620004 10.595006109979645 L152.58543898079586 23.43853882443995 Q158.77384766029962 29.79723891405299 152.4699572026951 36.033716266395174 L139.87992727772283 48.51045353727094 Q133.58783736642226 54.748875663543856 127.39591862549582 48.39010106883917 L114.89676653837046 35.546569500611035 L114.89676653837046 35.546569500611035z" stroke-width="1.0" stroke-linejoin="round" stroke="#3d3d3d"/><path fill="url(#id16)" d="M142.15748061328136 52.505073446028575 Q140.39884953311662 54.279643360488876 138.64362741551807 52.505073446028575 Q136.8884196865208 50.73050544195526 138.64362741551807 48.959393327902305 L158.84824808844857 28.57365526211816 Q160.60593879778878 26.796575767820805 162.36020842784598 28.57365526211816 Q164.12476212135942 30.347269505499018 162.36020842784598 32.11742222321796 L142.15748061328136 52.505073446028575 L142.15748061328136 52.505073446028575z" stroke-width="1.0" stroke-linejoin="round" stroke="#757575"/><path fill="url(#id17)" d="M114.70555433311881 24.8044656002037 Q112.94691605865343 26.579033604277015 111.19170825392668 24.8044656002037 Q109.43401610572633 23.03084896883913 111.19170825392668 21.2606958690428 L131.3963284346156 0.8730468813849297 Q133.15495913613293 -0.9015218295315695 134.9101820110263 0.8730468813849297 Q136.66881176592514 2.6476155158859505 134.9101820110263 4.41872514643585 L114.70555433311881 24.8044656002037 L114.70555433311881 24.8044656002037z" stroke-width="1.0" stroke-linejoin="round" stroke="#757575"/><path fill="#7f7f7f" fill-opacity="1.0" d="M144.88943052169878 18.521201629327933 Q147.97860831718035 21.696173067209813 151.25307721915436 26.026395621181308 Q154.53362719841513 30.36465899389007 154.39916571925596 30.22613874541757 Q157.29496260648722 33.19664528716908 160.00882130997655 30.503144855397192 Q161.49445575374142 29.069231323828955 161.2772882156559 29.25184521384934 Q166.33995544820257 24.231852610997993 152.97922281337884 10.503305625254601 Q139.5540417400903 -3.292246272912427 134.49176470369207 1.7193467405295348 Q133.6028509252615 2.6553051099796385 133.22329931260234 2.9744709767820825 Q130.5077944395299 5.673001839511214 133.397482608214 8.640678907128324 Q133.26309326138505 8.50288021181264 137.50178796356053 11.89478506843179 Q141.73146953228675 15.27948127087579 144.81937601911386 18.454338085539746 L144.88943052169878 18.52502240325868 L144.88943052169878 18.521201629327933z" stroke-width="1.0" stroke-linejoin="round" stroke="#3d3d3d"/><path fill="#5b5b5b" fill-opacity="1.0" d="M48.19234817375529 129.29881059063152 Q54.3668869988996 135.65382936456226 48.074967478930205 141.89208719755615 L35.483049996655666 154.3650017841142 Q29.188351204750763 160.60607170672114 23.000936474678976 154.24847391038713 L10.50557256549353 141.40494234215902 Q4.317159720868328 135.0462518044808 10.621059644657919 128.80975725865596 L23.21108578315616 116.3330238085541 Q29.50320219977492 110.09456920570278 35.69509064890916 116.45337742321806 L48.19424330400563 129.29882396334025 L48.19234817375529 129.29881059063152z" stroke-width="1.0" stroke-linejoin="round" stroke="#3d3d3d"/><path fill="url(#id18)" d="M20.931628987104435 112.33839778655816 Q22.688551042217256 110.56555600814676 24.44547499056709 112.33839778655816 Q26.200685559419874 114.11296674582498 24.44547499056709 115.88407408391052 L4.242743957499545 136.27172492464376 Q2.484106251005267 138.04283321792278 0.7288962501235836 136.27172492464376 Q-1.0263137507580997 134.4971645621183 0.7288962501235836 132.72604098574354 L20.933520330880725 112.3383905270877 L20.931628987104435 112.33839778655816z" stroke-width="1.0" stroke-linejoin="round" stroke="#757575"/><path fill="url(#id19)" d="M48.38356511209943 140.03900935763764 Q50.14220243994631 138.26444765784132 51.897411115562086 140.03900935763764 Q53.65262168441487 141.81357086639528 51.897411115562086 143.58469291446045 L31.69278703480493 163.97042744602868 Q29.935864033073607 165.74672435030567 28.178939138105267 163.97042744602868 Q26.421245210262125 162.1968127250511 28.178939138105267 160.42665389409387 L48.38167187508613 140.03900935763764 L48.38356511209943 140.03900935763764z" stroke-width="1.0" stroke-linejoin="round" stroke="#757575"/><path fill="#7f7f7f" fill-opacity="1.0" d="M18.199686651635066 146.3222745702649 Q15.110382009273623 143.14832901018343 11.836043740653528 138.81779066924653 Q8.554683455951077 134.47798313075367 8.689957701760052 134.6173355437883 Q5.797586437580696 131.64682900203675 3.0802968099758288 134.34033592912434 Q1.4604362164125484 135.90380636456223 1.8118278217357626 135.59354633971498 Q-3.24994277376141 140.6099590684319 10.109885461741058 154.34018012627305 Q23.533792954490764 168.1370100733199 28.597344328722638 163.1241527657843 Q29.582770407675426 162.12979635030567 29.865813127639015 161.86903426069262 Q32.579573382803666 159.17223268024455 29.69163721565169 156.20281887983722 Q29.827094537479844 156.34171929531584 25.58804598930657 152.94942414663967 Q21.357870096396173 149.56424136863558 18.269738314364474 146.3891591283097 L18.199686651635066 146.3222745702649z" stroke-width="1.0" stroke-linejoin="round" stroke="#3d3d3d"/></g><g transform="translate(879.8482499999999 527.3787499999999) rotate(90.0 33.02300000000008 39.87124999999992)"><path fill="url(#id20)" d="M61.046000000000106 78.33075351863309 Q61.046000000000106 79.74249999999982 60.046000000000106 79.74249999999982 L26.833000000000048 79.74249999999982 Q25.833000000000045 79.74249999999982 25.833000000000045 78.33075351863309 L25.833000000000045 1.4117464813667313 Q25.833000000000045 0.0 26.833000000000048 0.0 L60.046000000000106 0.0 Q61.046000000000106 0.0 61.046000000000106 1.4117464813667313 L61.046000000000106 78.33075351863309 L61.046000000000106 78.33075351863309z" stroke-width="1.0" stroke-linejoin="round" stroke="#993300"/><path fill="url(#id21)" d="M66.04599730000011 78.33075351863309 Q66.04599730000011 79.74249999999982 65.04599730000011 79.74249999999982 L61.83299600000011 79.74249999999982 Q60.83299600000011 79.74249999999982 60.83299600000011 78.33075351863309 L60.83299600000011 1.4117464813667313 Q60.83299600000011 0.0 61.83299600000011 0.0 L65.04599730000011 0.0 Q66.04599730000011 0.0 66.04599730000011 1.4117464813667313 L66.04599730000011 78.33075351863309 L66.04599730000011 78.33075351863309z" stroke-width="1.0" stroke-linejoin="round" stroke="#993300"/><path fill="#5b5b5b" fill-opacity="1.0" d="M23.601000700000043 46.522692135212786 Q23.601000700000043 53.10425140785152 18.940000700000034 53.10425140785152 L9.619000700000017 53.10425140785152 Q4.958000700000009 53.10425140785152 4.958000700000009 46.522692135212786 L4.958000700000009 33.221214952505015 Q4.958000700000009 26.63965186815078 9.619000700000017 26.63965186815078 L18.940000700000034 26.63965186815078 Q23.601000700000043 26.63965186815078 23.601000700000043 33.221214952505015 L23.601000700000043 46.522692135212786 L23.601000700000043 46.522692135212786z" stroke-width="1.0" stroke-linejoin="round" stroke="#3d3d3d"/><path fill="#7f7f7f" fill-opacity="1.0" d="M6.05499989000001 39.83666221120642 Q6.05499989000001 36.550114990838196 6.408499490000011 32.55416939882262 Q6.761999890000012 28.558219006869017 6.761999890000012 28.693747657302758 Q6.761999890000012 25.61613990439934 4.749000290000008 25.61613990439934 Q4.280000490000007 25.61613990439934 3.810999590000007 25.61613990439934 Q0.06399989000000011 25.61613990439934 0.06399989000000011 39.835249052978575 Q0.06399989000000011 54.126360095600475 3.810999590000007 54.126360095600475 Q4.279999490000007 54.126360095600475 4.749000290000008 54.126360095600475 Q6.761999890000012 54.126360095600475 6.761999890000012 51.048752766221 Q6.761999890000012 51.18516418172955 6.408500390000011 47.188862829600666 Q6.05499989000001 43.19256006572532 6.05499989000001 39.90583778879339 L6.05499989000001 39.83666221120642z" stroke-width="1.0" stroke-linejoin="round" stroke="#3d3d3d"/><path fill="#cccccc" fill-opacity="1.0" d="M59.054001000000106 38.825851730547846 Q59.054001000000106 46.71468965667866 53.46700300000009 46.71468965667866 Q47.88000500000008 46.71468965667866 47.88000500000008 38.825851730547846 Q47.88000500000008 30.938424139151916 53.46700300000009 30.938424139151916 Q59.054001000000106 30.938424139151916 59.054001000000106 38.825851730547846 L59.054001000000106 38.825851730547846z" stroke-width="1.0" stroke-linejoin="round" stroke="#444444"/><path fill="#cccccc" fill-opacity="1.0" d="M56.9670003000001 51.06286740754171 L53.03000000000009 51.06286740754171 L53.03000000000009 27.85658157032834 L56.9679997000001 27.85658157032834 L56.9679997000001 51.06286740754171 L56.9670003000001 51.06286740754171z" stroke-width="1.0" stroke-linejoin="round" stroke="#444444"/><path fill="#ededed" fill-opacity="1.0" d="M54.3610015000001 61.381326675090584 L50.46100000000009 61.381326675090584 L50.46100000000009 17.1936618083119 L54.3610015000001 17.1936618083119 L54.3610015000001 61.381326675090584 L54.3610015000001 61.381326675090584z" stroke-width="1.0" stroke-linejoin="round" stroke="#444444"/><path fill="#cccccc" fill-opacity="1.0" d="M47.34700000000009 54.441179560945265 L38.09700000000007 54.441179560945265 L38.09700000000007 24.13239435248291 L47.34700000000009 24.13239435248291 L47.34700000000009 54.441179560945265 L47.34700000000009 54.441179560945265z" stroke-width="1.0" stroke-linejoin="round" stroke="#444444"/><path fill="#bcbcbc" fill-opacity="1.0" d="M45.84099900000008 51.987565588076365 L39.60300000000007 51.987565588076365 L39.60300000000007 26.584597990616917 L45.84099900000008 26.584597990616917 L45.84099900000008 51.98756135283692 L45.84099900000008 51.987565588076365z" stroke="none"/><path fill="#ededed" fill-opacity="1.0" d="M45.658001400000074 51.729213158493295 L39.78700300000007 51.729213158493295 L39.78700300000007 26.844359343188398 L45.658001400000074 26.844359343188398 L45.658001400000074 51.729213158493295 L45.658001400000074 51.729213158493295z" stroke="none"/></g><g transform="translate(1137.9769999999999 539.0074999999999) rotate(90.0 33.023000000000025 28.242500000000007)"><path fill="url(#id22)" d="M61.046 55.485 Q61.046 56.485 60.046 56.485 L26.833 56.485 Q25.833 56.485 25.833 55.485 L25.833 1.0 Q25.833 0.0 26.833 0.0 L60.046 0.0 Q61.046 0.0 61.046 1.0 L61.046 55.485 L61.046 55.485z" stroke-width="1.0" stroke-linejoin="round" stroke="#993300"/><path fill="url(#id23)" d="M66.0459973 55.485 Q66.0459973 56.485 65.0459973 56.485 L61.832996 56.485 Q60.832996 56.485 60.832996 55.485 L60.832996 1.0 Q60.832996 0.0 61.832996 0.0 L65.0459973 0.0 Q66.0459973 0.0 66.0459973 1.0 L66.0459973 55.485 L66.0459973 55.485z" stroke-width="1.0" stroke-linejoin="round" stroke="#993300"/><path fill="#5b5b5b" fill-opacity="1.0" d="M23.6010007 32.953999 Q23.6010007 37.615997 18.9400007 37.615997 L9.6190007 37.615997 Q4.9580007 37.615997 4.9580007 32.953999 L4.9580007 23.5319977 Q4.9580007 18.869997 9.6190007 18.869997 L18.9400007 18.869997 Q23.6010007 18.869997 23.6010007 23.5319977 L23.6010007 32.953999 L23.6010007 32.953999z" stroke-width="1.0" stroke-linejoin="round" stroke="#3d3d3d"/><path fill="#7f7f7f" fill-opacity="1.0" d="M6.0549998899999995 28.218 Q6.0549998899999995 25.889999 6.40849949 23.059500999999997 Q6.76199989 20.228999599999998 6.76199989 20.3250003 Q6.76199989 18.145 4.74900029 18.145 Q4.28000049 18.145 3.8109995899999998 18.145 Q0.06399989 18.145 0.06399989 28.216999 Q0.06399989 38.34 3.8109995899999998 38.34 Q4.27999949 38.34 4.74900029 38.34 Q6.76199989 38.34 6.76199989 36.16 Q6.76199989 36.256626 6.4085003899999995 33.425876 Q6.0549998899999995 30.595125 6.0549998899999995 28.267 L6.0549998899999995 28.218z" stroke-width="1.0" stroke-linejoin="round" stroke="#3d3d3d"/><path fill="#cccccc" fill-opacity="1.0" d="M59.054001 27.502 Q59.054001 33.089999 53.467003 33.089999 Q47.880005 33.089999 47.880005 27.502 Q47.880005 21.915 53.467003 21.915 Q59.054001 21.915 59.054001 27.502 L59.054001 27.502z" stroke-width="1.0" stroke-linejoin="round" stroke="#444444"/><path fill="#cccccc" fill-opacity="1.0" d="M56.9670003 36.169998 L53.03 36.169998 L53.03 19.732 L56.9679997 19.732 L56.9679997 36.169998 L56.9670003 36.169998z" stroke-width="1.0" stroke-linejoin="round" stroke="#444444"/><path fill="#ededed" fill-opacity="1.0" d="M54.3610015 43.479001 L50.461 43.479001 L50.461 12.179001 L54.3610015 12.179001 L54.3610015 43.479001 L54.3610015 43.479001z" stroke-width="1.0" stroke-linejoin="round" stroke="#444444"/><path fill="#cccccc" fill-opacity="1.0" d="M47.347 38.563 L38.097 38.563 L38.097 17.094 L47.347 17.094 L47.347 38.563 L47.347 38.563z" stroke-width="1.0" stroke-linejoin="round" stroke="#444444"/><path fill="#bcbcbc" fill-opacity="1.0" d="M45.840999000000004 36.825001 L39.603 36.825001 L39.603 18.831 L45.840999000000004 18.831 L45.840999000000004 36.824998 L45.840999000000004 36.825001z" stroke="none"/><path fill="#ededed" fill-opacity="1.0" d="M45.658001399999996 36.641999 L39.787003 36.641999 L39.787003 19.015 L45.658001399999996 19.015 L45.658001399999996 36.641999 L45.658001399999996 36.641999z" stroke="none"/></g><g transform="translate(733.2018980495018 615.7574999999999) rotate(180.0 38.30649999999997 157.7425)"><path fill="url(#id24)" d="M67.08710041528862 309.8997118704078 Q67.08710041528862 315.4849999999998 65.18192049834634 315.4849999999998 L1.9051799169422836 315.4849999999998 Q0.0 315.4849999999998 0.0 309.8997118704078 L0.0 5.585288129591921 Q0.0 0.0 1.9051799169422836 0.0 L65.18192049834634 0.0 Q67.08710041528862 0.0 67.08710041528862 5.585288129591921 L67.08710041528862 309.8997118704078 L67.08710041528862 309.8997118704078z" stroke-width="1.0" stroke-linejoin="round" stroke="#993300"/><path fill="url(#id25)" d="M76.61300247673393 309.8997118704078 Q76.61300247673393 315.4849999999998 74.70782255979164 315.4849999999998 L68.58647700992218 315.4849999999998 Q66.68129709297989 315.4849999999998 66.68129709297989 309.8997118704078 L66.68129709297989 5.585288129591921 Q66.68129709297989 0.0 68.58647700992218 0.0 L74.70782255979164 0.0 Q76.61300247673393 0.0 76.61300247673393 5.585288129591921 L76.61300247673393 309.8997118704078 L76.61300247673393 309.8997118704078z" stroke-width="1.0" stroke-linejoin="round" stroke="#993300"/></g><g transform="translate(841.0495 647.0265)"><path fill="#5b5b5b" fill-opacity="1.0" d="M0.06013073641010288 11.011873548977432 Q0.039182686516994185 1.3891035211824208 10.816585431652687 1.3666778061505267 L32.37343536515348 1.3191950338450398 Q43.15378451376681 1.2967808860283672 43.1830820328053 10.92103632964705 L43.23858727885228 30.37039106839851 Q43.2679264268253 40.001015396357396 32.48444816996605 40.019711220209885 L10.92759893028083 40.071322924749566 Q0.14729086017499116 40.09749005895121 0.11795223025094806 30.467414879528654 L0.06013073641010288 11.011873548977432 L0.06013073641010288 11.011873548977432z" stroke-width="1.0" stroke-linejoin="round" stroke="#3d3d3d"/><path fill="#7f7f7f" fill-opacity="1.0" d="M46.80017329195603 36.000193640158436 Q46.86304107761929 40.78531089251394 41.50404541892021 40.84137152598499 Q36.14775841622822 40.89740532136966 36.08072202469653 36.11374145461399 L35.67368438395122 4.973303816416785 Q35.610842988719725 0.19024954582576714 40.96980973843649 0.13419005813455437 Q46.326149933655934 0.0781582549616567 46.393133433313594 4.861822121717337 L46.80248462291016 36.000193640158436 L46.80017329195603 36.000193640158436z" stroke-width="1.0" stroke-linejoin="round" stroke="#3d3d3d"/></g><g transform="translate(841.0495000000001 728.51325)"><path fill="#5b5b5b" fill-opacity="1.0" d="M0.06013073641010288 11.011873548977432 Q0.039182686516994185 1.3891035211824208 10.816585431652687 1.3666778061505267 L32.37343536515348 1.3191950338450398 Q43.15378451376681 1.2967808860283672 43.1830820328053 10.92103632964705 L43.23858727885228 30.37039106839851 Q43.2679264268253 40.001015396357396 32.48444816996605 40.019711220209885 L10.92759893028083 40.071322924749566 Q0.14729086017499116 40.09749005895121 0.11795223025094806 30.467414879528654 L0.06013073641010288 11.011873548977432 L0.06013073641010288 11.011873548977432z" stroke-width="1.0" stroke-linejoin="round" stroke="#3d3d3d"/><path fill="#7f7f7f" fill-opacity="1.0" d="M46.80017329195603 36.000193640158436 Q46.86304107761929 40.78531089251394 41.50404541892021 40.84137152598499 Q36.14775841622822 40.89740532136966 36.08072202469653 36.11374145461399 L35.67368438395122 4.973303816416785 Q35.610842988719725 0.19024954582576714 40.96980973843649 0.13419005813455437 Q46.326149933655934 0.0781582549616567 46.393133433313594 4.861822121717337 L46.80248462291016 36.000193640158436 L46.80017329195603 36.000193640158436z" stroke-width="1.0" stroke-linejoin="round" stroke="#3d3d3d"/></g><g transform="translate(841.0495000000001 799.2348410855394)"><path fill="#5b5b5b" fill-opacity="1.0" d="M0.06013073641010288 11.011873548977432 Q0.039182686516994185 1.3891035211824208 10.816585431652687 1.3666778061505267 L32.37343536515348 1.3191950338450398 Q43.15378451376681 1.2967808860283672 43.1830820328053 10.92103632964705 L43.23858727885228 30.37039106839851 Q43.2679264268253 40.001015396357396 32.48444816996605 40.019711220209885 L10.92759893028083 40.071322924749566 Q0.14729086017499116 40.09749005895121 0.11795223025094806 30.467414879528654 L0.06013073641010288 11.011873548977432 L0.06013073641010288 11.011873548977432z" stroke-width="1.0" stroke-linejoin="round" stroke="#3d3d3d"/><path fill="#7f7f7f" fill-opacity="1.0" d="M46.80017329195603 36.000193640158436 Q46.86304107761929 40.78531089251394 41.50404541892021 40.84137152598499 Q36.14775841622822 40.89740532136966 36.08072202469653 36.11374145461399 L35.67368438395122 4.973303816416785 Q35.610842988719725 0.19024954582576714 40.96980973843649 0.13419005813455437 Q46.326149933655934 0.0781582549616567 46.393133433313594 4.861822121717337 L46.80248462291016 36.000193640158436 L46.80017329195603 36.000193640158436z" stroke-width="1.0" stroke-linejoin="round" stroke="#3d3d3d"/></g><g transform="translate(841.0495000000001 869.51325)"><path fill="#5b5b5b" fill-opacity="1.0" d="M0.06013073641010288 11.011873548977432 Q0.039182686516994185 1.3891035211824208 10.816585431652687 1.3666778061505267 L32.37343536515348 1.3191950338450398 Q43.15378451376681 1.2967808860283672 43.1830820328053 10.92103632964705 L43.23858727885228 30.37039106839851 Q43.2679264268253 40.001015396357396 32.48444816996605 40.019711220209885 L10.92759893028083 40.071322924749566 Q0.14729086017499116 40.09749005895121 0.11795223025094806 30.467414879528654 L0.06013073641010288 11.011873548977432 L0.06013073641010288 11.011873548977432z" stroke-width="1.0" stroke-linejoin="round" stroke="#3d3d3d"/><path fill="#7f7f7f" fill-opacity="1.0" d="M46.80017329195603 36.000193640158436 Q46.86304107761929 40.78531089251394 41.50404541892021 40.84137152598499 Q36.14775841622822 40.89740532136966 36.08072202469653 36.11374145461399 L35.67368438395122 4.973303816416785 Q35.610842988719725 0.19024954582576714 40.96980973843649 0.13419005813455437 Q46.326149933655934 0.0781582549616567 46.393133433313594 4.861822121717337 L46.80248462291016 36.000193640158436 L46.80017329195603 36.000193640158436z" stroke-width="1.0" stroke-linejoin="round" stroke="#3d3d3d"/></g><g transform="translate(1330.2860509752495 615.7575000000003) rotate(360.00000000000006 38.306499999999915 157.7425)"><path fill="url(#id26)" d="M67.08710041528862 309.8997118704078 Q67.08710041528862 315.4849999999998 65.18192049834634 315.4849999999998 L1.9051799169422836 315.4849999999998 Q0.0 315.4849999999998 0.0 309.8997118704078 L0.0 5.585288129591921 Q0.0 0.0 1.9051799169422836 0.0 L65.18192049834634 0.0 Q67.08710041528862 0.0 67.08710041528862 5.585288129591921 L67.08710041528862 309.8997118704078 L67.08710041528862 309.8997118704078z" stroke-width="1.0" stroke-linejoin="round" stroke="#993300"/><path fill="url(#id27)" d="M76.61300247673393 309.8997118704078 Q76.61300247673393 315.4849999999998 74.70782255979164 315.4849999999998 L68.58647700992218 315.4849999999998 Q66.68129709297989 315.4849999999998 66.68129709297989 309.8997118704078 L66.68129709297989 5.585288129591921 Q66.68129709297989 0.0 68.58647700992218 0.0 L74.70782255979164 0.0 Q76.61300247673393 0.0 76.61300247673393 5.585288129591921 L76.61300247673393 309.8997118704078 L76.61300247673393 309.8997118704078z" stroke-width="1.0" stroke-linejoin="round" stroke="#993300"/></g><g transform="translate(1252.1009490247502 859.0000000000006) rotate(179.99999999999997 23.47524999999996 20.486749999999972)"><path fill="#5b5b5b" fill-opacity="1.0" d="M0.06013073641010288 11.011873548977432 Q0.039182686516994185 1.3891035211824208 10.816585431652687 1.3666778061505267 L32.37343536515348 1.3191950338450398 Q43.15378451376681 1.2967808860283672 43.1830820328053 10.92103632964705 L43.23858727885228 30.37039106839851 Q43.2679264268253 40.001015396357396 32.48444816996605 40.019711220209885 L10.92759893028083 40.071322924749566 Q0.14729086017499116 40.09749005895121 0.11795223025094806 30.467414879528654 L0.06013073641010288 11.011873548977432 L0.06013073641010288 11.011873548977432z" stroke-width="1.0" stroke-linejoin="round" stroke="#3d3d3d"/><path fill="#7f7f7f" fill-opacity="1.0" d="M46.80017329195603 36.000193640158436 Q46.86304107761929 40.78531089251394 41.50404541892021 40.84137152598499 Q36.14775841622822 40.89740532136966 36.08072202469653 36.11374145461399 L35.67368438395122 4.973303816416785 Q35.610842988719725 0.19024954582576714 40.96980973843649 0.13419005813455437 Q46.326149933655934 0.0781582549616567 46.393133433313594 4.861822121717337 L46.80248462291016 36.000193640158436 L46.80017329195603 36.000193640158436z" stroke-width="1.0" stroke-linejoin="round" stroke="#3d3d3d"/></g><g transform="translate(1252.1009490247502 777.5132500000009) rotate(179.99999999999997 23.47524999999996 20.486749999999972)"><path fill="#5b5b5b" fill-opacity="1.0" d="M0.06013073641010288 11.011873548977432 Q0.039182686516994185 1.3891035211824208 10.816585431652687 1.3666778061505267 L32.37343536515348 1.3191950338450398 Q43.15378451376681 1.2967808860283672 43.1830820328053 10.92103632964705 L43.23858727885228 30.37039106839851 Q43.2679264268253 40.001015396357396 32.48444816996605 40.019711220209885 L10.92759893028083 40.071322924749566 Q0.14729086017499116 40.09749005895121 0.11795223025094806 30.467414879528654 L0.06013073641010288 11.011873548977432 L0.06013073641010288 11.011873548977432z" stroke-width="1.0" stroke-linejoin="round" stroke="#3d3d3d"/><path fill="#7f7f7f" fill-opacity="1.0" d="M46.80017329195603 36.000193640158436 Q46.86304107761929 40.78531089251394 41.50404541892021 40.84137152598499 Q36.14775841622822 40.89740532136966 36.08072202469653 36.11374145461399 L35.67368438395122 4.973303816416785 Q35.610842988719725 0.19024954582576714 40.96980973843649 0.13419005813455437 Q46.326149933655934 0.0781582549616567 46.393133433313594 4.861822121717337 L46.80248462291016 36.000193640158436 L46.80017329195603 36.000193640158436z" stroke-width="1.0" stroke-linejoin="round" stroke="#3d3d3d"/></g><g transform="translate(1252.100949024749 706.7916589144622) rotate(179.99999999999997 23.475250000000074 20.486749999999972)"><path fill="#5b5b5b" fill-opacity="1.0" d="M0.06013073641010288 11.011873548977432 Q0.039182686516994185 1.3891035211824208 10.816585431652687 1.3666778061505267 L32.37343536515348 1.3191950338450398 Q43.15378451376681 1.2967808860283672 43.1830820328053 10.92103632964705 L43.23858727885228 30.37039106839851 Q43.2679264268253 40.001015396357396 32.48444816996605 40.019711220209885 L10.92759893028083 40.071322924749566 Q0.14729086017499116 40.09749005895121 0.11795223025094806 30.467414879528654 L0.06013073641010288 11.011873548977432 L0.06013073641010288 11.011873548977432z" stroke-width="1.0" stroke-linejoin="round" stroke="#3d3d3d"/><path fill="#7f7f7f" fill-opacity="1.0" d="M46.80017329195603 36.000193640158436 Q46.86304107761929 40.78531089251394 41.50404541892021 40.84137152598499 Q36.14775841622822 40.89740532136966 36.08072202469653 36.11374145461399 L35.67368438395122 4.973303816416785 Q35.610842988719725 0.19024954582576714 40.96980973843649 0.13419005813455437 Q46.326149933655934 0.0781582549616567 46.393133433313594 4.861822121717337 L46.80248462291016 36.000193640158436 L46.80017329195603 36.000193640158436z" stroke-width="1.0" stroke-linejoin="round" stroke="#3d3d3d"/></g><g transform="translate(1252.1009490247498 636.5132500000007) rotate(179.99999999999997 23.47524999999996 20.486749999999972)"><path fill="#5b5b5b" fill-opacity="1.0" d="M0.06013073641010288 11.011873548977432 Q0.039182686516994185 1.3891035211824208 10.816585431652687 1.3666778061505267 L32.37343536515348 1.3191950338450398 Q43.15378451376681 1.2967808860283672 43.1830820328053 10.92103632964705 L43.23858727885228 30.37039106839851 Q43.2679264268253 40.001015396357396 32.48444816996605 40.019711220209885 L10.92759893028083 40.071322924749566 Q0.14729086017499116 40.09749005895121 0.11795223025094806 30.467414879528654 L0.06013073641010288 11.011873548977432 L0.06013073641010288 11.011873548977432z" stroke-width="1.0" stroke-linejoin="round" stroke="#3d3d3d"/><path fill="#7f7f7f" fill-opacity="1.0" d="M46.80017329195603 36.000193640158436 Q46.86304107761929 40.78531089251394 41.50404541892021 40.84137152598499 Q36.14775841622822 40.89740532136966 36.08072202469653 36.11374145461399 L35.67368438395122 4.973303816416785 Q35.610842988719725 0.19024954582576714 40.96980973843649 0.13419005813455437 Q46.326149933655934 0.0781582549616567 46.393133433313594 4.861822121717337 L46.80248462291016 36.000193640158436 L46.80017329195603 36.000193640158436z" stroke-width="1.0" stroke-linejoin="round" stroke="#3d3d3d"/></g><g transform="translate(995.758 949.758)"><path fill="none" d="M55.6189978 52.8559973 Q55.6189978 31.2171703 40.3181228 15.916500300000001 Q25.0174238 0.6159973 3.3789978 0.6159973" stroke-width="1.0" stroke-linejoin="round" stroke="#757575"/><path fill="#ffffff" fill-opacity="1.0" d="M1.0 49.271 Q0.0 49.271 0.0 50.271 L0.0 55.4840013 Q0.0 56.4840013 1.0 56.4840013 L55.484 56.4840013 Q56.484 56.4840013 56.484 55.4840013 L56.484 50.271 Q56.484 49.271 55.484 49.271 L1.0 49.271 L1.0 49.271z" stroke-width="1.0" stroke-linejoin="round" stroke="#757575"/><path fill="url(#id28)" d="M4.213 1.0 Q4.213 0.0 3.2129998 0.0 L1.0 0.0 Q0.0 0.0 0.0 1.0 L0.0 55.484 Q0.0 56.484 1.0 56.484 L3.213 56.484 Q4.2130003 56.484 4.2130003 55.484 L4.2130003 1.0 L4.213 1.0z" stroke-width="1.0" stroke-linejoin="round" stroke="#993300"/>
</g></g></svg>